<svg width="240" height="243" viewBox="0 0 240 243" fill="none" xmlns="http://www.w3.org/2000/svg">
<g opacity="0.2">
<path opacity="0.2" d="M225.231 241.131H14.7692C7.64305 241.131 1.84613 235.261 1.84613 228.046V14.9538C1.84613 7.73862 7.64305 1.86923 14.7692 1.86923H225.231C232.357 1.86923 238.154 7.73862 238.154 14.9538V228.046C238.154 235.261 232.357 241.131 225.231 241.131Z" fill="#F6F6F6"/>
<path opacity="0.2" d="M14.7692 3.73846C8.66215 3.73846 3.69231 8.77043 3.69231 14.9538V228.046C3.69231 234.23 8.66215 239.262 14.7692 239.262H225.231C231.338 239.262 236.308 234.23 236.308 228.046V14.9538C236.308 8.77043 231.338 3.73846 225.231 3.73846H14.7692ZM14.7692 0H225.231C233.391 0 240 6.69185 240 14.9538V228.046C240 236.308 233.391 243 225.231 243H14.7692C6.60923 243 0 236.308 0 228.046V14.9538C0 6.69185 6.60923 0 14.7692 0Z" fill="#828D99"/>
</g>
<path d="M164.71 67.2923H78.9896C75.5567 67.4113 72.3104 68.9034 69.9621 71.4415C67.6138 73.9797 66.355 77.3568 66.4616 80.833V165.924C66.358 169.398 67.6184 172.771 69.9666 175.306C72.3147 177.84 75.5593 179.329 78.9896 179.446H164.71C168.139 179.328 171.383 177.839 173.73 175.304C176.076 172.77 177.335 169.397 177.231 165.924V80.833C177.338 77.3578 176.081 73.9812 173.734 71.443C171.387 68.9049 168.142 67.4123 164.71 67.2923V67.2923ZM138.092 87.4276C141.529 87.4913 144.813 88.8808 147.272 91.3125C149.731 93.7443 151.181 97.0348 151.326 100.512C151.181 103.99 149.731 107.28 147.272 109.712C144.813 112.144 141.529 113.533 138.092 113.597C134.679 113.524 131.425 112.125 129.003 109.689C126.582 107.253 125.178 103.967 125.084 100.512C125.178 97.0573 126.582 93.7714 129.003 91.3355C131.425 88.8995 134.679 87.5003 138.092 87.4276V87.4276ZM160.782 166.934H84.6462C81.3047 166.934 79.8167 164.317 81.3231 161.102L102.089 116.677C102.261 115.986 102.639 115.366 103.172 114.901C103.705 114.436 104.366 114.148 105.067 114.078C105.767 114.008 106.472 114.158 107.084 114.508C107.697 114.858 108.189 115.391 108.491 116.034L129.375 145.508C129.789 146.171 130.352 146.725 131.017 147.126C131.683 147.527 132.432 147.763 133.205 147.816C133.977 147.869 134.751 147.737 135.464 147.43C136.176 147.123 136.807 146.65 137.306 146.05L142.412 140.465C142.898 139.867 143.52 139.399 144.225 139.1C144.93 138.801 145.696 138.682 146.457 138.751C147.218 138.821 147.951 139.078 148.592 139.5C149.232 139.922 149.761 140.496 150.133 141.172L163.363 161.58C165.275 164.541 164.123 166.934 160.782 166.934V166.934Z" fill="#26C6DA"/>
<rect x="65" y="63" width="112" height="116" rx="19" fill="#26C6DA"/>
<path d="M150.2 109.039H147V97.0259C147 83.7756 135.518 73 121.4 73C107.282 73 95.8 83.7756 95.8 97.0259V109.039H92.6C87.3072 109.039 83 113.081 83 118.049V160.094C83 165.061 87.3072 169.104 92.6 169.104H150.2C155.493 169.104 159.8 165.061 159.8 160.094V118.049C159.8 113.081 155.493 109.039 150.2 109.039ZM104.331 97.0259C104.331 88.1964 111.986 81.0066 121.4 81.0066C130.814 81.0066 138.469 88.1964 138.469 97.0259V109.039H104.331V97.0259ZM125.669 139.96V149.084C125.669 151.294 123.762 153.09 121.4 153.09C119.038 153.09 117.131 151.294 117.131 149.084V139.96C114.59 138.573 112.862 136.02 112.862 133.065C112.862 128.65 116.69 125.058 121.394 125.058C126.098 125.058 129.925 128.65 129.925 133.065C129.931 136.014 128.203 138.573 125.669 139.96Z" fill="white"/>
</svg>
