<svg xmlns="http://www.w3.org/2000/svg" width="65" height="65" viewBox="0 0 65 65">
    <g id="Сгруппировать_31997" data-name="Сгруппировать 31997" transform="translate(-490 -85)">
        <g id="Контур_14409" fill="#f6f6f6" stroke="none" data-name="Контур 14409" opacity="0.2">
            <path d="M61 64.5H4C2.07 64.5.5 62.93.5 61V4C.5 2.07 2.07.5 4 .5h57c1.93 0 3.5 1.57 3.5 3.5v57c0 1.93-1.57 3.5-3.5 3.5z" transform="translate(490 85)"/>
            <path fill="#828d99" d="M4 1C2.346 1 1 2.346 1 4v57c0 1.654 1.346 3 3 3h57c1.654 0 3-1.346 3-3V4c0-1.654-1.346-3-3-3H4m0-1h57c2.21 0 4 1.79 4 4v57c0 2.21-1.79 4-4 4H4c-2.21 0-4-1.79-4-4V4c0-2.21 1.79-4 4-4z" transform="translate(490 85)"/>
        </g>
        <g id="Сгруппировать_31394" data-name="Сгруппировать 31394" transform="translate(351.48 103.155)">
            <g id="interface" transform="translate(156.52 -.155)">
                <path id="Контур_14281" fill="#6c70f0" d="M26.609 8.347H3.393A3.515 3.515 0 0 0 0 11.969V34.73a3.513 3.513 0 0 0 3.393 3.617h23.216A3.512 3.512 0 0 0 30 34.73V11.969a3.514 3.514 0 0 0-3.391-3.622zM19.4 13.733a3.654 3.654 0 0 1 3.584 3.5 3.654 3.654 0 0 1-3.584 3.5 3.6 3.6 0 0 1-3.523-3.5 3.6 3.6 0 0 1 3.523-3.5zM25.545 35H4.925c-.905 0-1.308-.7-.9-1.56l5.624-11.883a.926.926 0 0 1 1.734-.172l5.656 7.884a1.334 1.334 0 0 0 2.148.145l1.383-1.494a1.27 1.27 0 0 1 2.091.189l3.583 5.459c.518.792.206 1.432-.699 1.432z" data-name="Контур 14281" transform="translate(0 -8.347)"/>
            </g>
        </g>
    </g>
</svg>
