<svg xmlns="http://www.w3.org/2000/svg" width="65" height="65" viewBox="0 0 65 65">
    <defs>
        <clipPath id="clip-path">
            <rect id="Card" width="56.129" height="30" fill="#fff" stroke="#c7cfd6" stroke-width="0.5px" rx="1" transform="translate(89 65.1)"/>
        </clipPath>
        <style>
        </style>
    </defs>
    <g id="Сгруппировать_31999" data-name="Сгруппировать 31999" transform="translate(-663 -85)">
        <g id="Прямоугольник_519" fill="#f6f6f6" stroke="#828d99" data-name="Прямоугольник 519" opacity="0.2" transform="translate(663 85)">
            <rect width="65" height="65" stroke="none" rx="4"/>
            <rect width="64" height="64" x=".5" y=".5" fill="none" rx="3.5"/>
        </g>
        <g id="Сгруппировать_31406" data-name="Сгруппировать 31406" transform="translate(-4 -56)">
            <g id="Сгруппировать_31397" data-name="Сгруппировать 31397" transform="translate(89 56)">
                <rect id="Прямоугольник_521" width="30" height="30" fill="#c27aeb" data-name="Прямоугольник 521" rx="4" transform="translate(596 103)"/>
            </g>
            <g id="data_1_" data-name="data (1)" transform="translate(691.607 165.493)">
                <g id="Сгруппировать_31781" data-name="Сгруппировать 31781">
                    <path id="Контур_14380" fill="#fff" d="M16.1 11.807a1.94 1.94 0 0 0-1.863 1.409h-1.87v-2.062h1.909a3.761 3.761 0 0 0 1.093-7.36A4.3 4.3 0 0 0 11.2.539a4.253 4.253 0 0 0-2.153.576 3.763 3.763 0 0 0-6.3 2.654 3.761 3.761 0 0 0 1.01 7.384h1.914v2.062H3.8a1.937 1.937 0 1 0 0 1.057h2.4a.528.528 0 0 0 .528-.528v-2.59h1.76v3.193a1.937 1.937 0 1 0 1.057 0v-3.193h1.761v2.591a.528.528 0 0 0 .528.528h2.4a1.937 1.937 0 1 0 1.866-2.466zM1.937 14.625a.881.881 0 1 1 .881-.881.882.882 0 0 1-.881.881zM9.9 16.21a.881.881 0 1 1-.881-.881.882.882 0 0 1 .881.881zM3.761 10.1a2.7 2.7 0 0 1-.394-5.38.528.528 0 0 0 .45-.571c-.008-.083-.012-.167-.012-.251a2.705 2.705 0 0 1 4.764-1.759.528.528 0 0 0 .717.083A3.2 3.2 0 0 1 11.2 1.6a3.242 3.242 0 0 1 3.193 2.713.528.528 0 0 0 .417.433 2.7 2.7 0 0 1-.538 5.355H3.761zM16.1 14.625a.881.881 0 1 1 .881-.881.882.882 0 0 1-.881.881z" data-name="Контур 14380" transform="translate(0 -.133)"/>
                </g>
            </g>
        </g>
    </g>
</svg>
