<svg xmlns="http://www.w3.org/2000/svg" id="_File_Icon" width="27" height="36" data-name="File Icon" viewBox="0 0 27 36">
    <defs>
        <style>
            .cls-1{fill:#00a5e5}
        </style>
    </defs>
    <g id="Icon" transform="translate(7 16)">
        <g id="PS_Logo" data-name="PS Logo">
            <path id="Shape" d="M2.254 10.111H0V.041h.116C1.306.013 2.3 0 3.074 0a4.817 4.817 0 0 1 3.074.851 3.048 3.048 0 0 1 1.075 2.384A3.206 3.206 0 0 1 6.3 5.618a4.55 4.55 0 0 1-3.226 1.236c-.413.017-.8.021-.821.021v3.235zm.49-8.511c-.27 0-.481.007-.49.007v3.475c.1.009.2.014.314.014h.446a1.754 1.754 0 0 0 1.955-1.749 1.687 1.687 0 0 0-1.776-1.741C3.057 1.6 2.906 1.6 2.744 1.6z" class="cls-1"/>
            <path id="Shape-2" d="M.113 5.109a5.973 5.973 0 0 0 2.244.6c.742 0 1.049-.226 1.049-.579s-.242-.73-1.162-.995C.613 3.655-.016 3.08 0 2.275 0 .975 1.259 0 3.212 0a5.283 5.283 0 0 1 2.139.472v1.56a6.113 6.113 0 0 0-2.058-.549c-.6 0-.936.212-.936.565 0 .325.307.495 1.275.791 1.5.452 2.13 1.116 2.146 2.133 0 1.286-1.145 2.308-3.421 2.246a6.037 6.037 0 0 1-2.244-.569v-1.54z" class="cls-1" data-name="Shape" transform="translate(7.222 2.889)"/>
        </g>
    </g>
    <path id="File" fill="#f2f4f4" d="M25 36H2a2 2 0 0 1-2-2V2a2 2 0 0 1 2-2h19.722L27 5v29a2 2 0 0 1-2 2zM2 1a1 1 0 0 0-1 1v32a1 1 0 0 0 1 1h23a1 1 0 0 0 1-1V6h-3a2 2 0 0 1-2-2V1zm20 .641V4a1 1 0 0 0 1 1h2.545z"/>
</svg>
