<svg xmlns="http://www.w3.org/2000/svg" id="_File_Icon" width="27" height="36" data-name="File Icon" viewBox="0 0 27 36">
    <g id="Icon" transform="translate(6 14)">
        <circle id="Oval_" cx="7" cy="7" r="7" fill="#e7edf3" data-name="Oval"/>
        <path id="_" fill="#475f7b" d="M2.063 7.987a.591.591 0 0 1-.436-.156.547.547 0 0 1-.156-.4.566.566 0 0 1 .156-.409.583.583 0 0 1 .436-.161.579.579 0 0 1 .437.159.566.566 0 0 1 .156.409.547.547 0 0 1-.156.4.587.587 0 0 1-.437.158zm.456-2.261h-1a3.574 3.574 0 0 1 .091-.838 1.838 1.838 0 0 1 .267-.588 5.441 5.441 0 0 1 .561-.644l.162-.17c.18-.184.321-.338.419-.459a1.656 1.656 0 0 0 .241-.417 1.421 1.421 0 0 0 .1-.542 1.262 1.262 0 0 0-.3-.889 1.112 1.112 0 0 0-.851-.32 1.519 1.519 0 0 0-.6.118 1.008 1.008 0 0 0-.44.363 1.044 1.044 0 0 0-.166.6H0A1.856 1.856 0 0 1 .3.908a1.9 1.9 0 0 1 .79-.674A2.632 2.632 0 0 1 2.213 0a2.533 2.533 0 0 1 1.16.248 1.708 1.708 0 0 1 .735.706 2.234 2.234 0 0 1 .253 1.088 2.062 2.062 0 0 1-.183.854 3.241 3.241 0 0 1-.467.743 8.717 8.717 0 0 1-.693.728 1.364 1.364 0 0 0-.39.588 2.5 2.5 0 0 0-.11.77z" data-name="?" transform="translate(5 3)"/>
    </g>
    <path id="File" fill="#f2f4f4" d="M25 36H2a2 2 0 0 1-2-2V2a2 2 0 0 1 2-2h19.722L27 5v29a2 2 0 0 1-2 2zM2 1a1 1 0 0 0-1 1v32a1 1 0 0 0 1 1h23a1 1 0 0 0 1-1V6h-3a2 2 0 0 1-2-2V1zm20 .641V4a1 1 0 0 0 1 1h2.545z"/>
</svg>
