<svg xmlns="http://www.w3.org/2000/svg" id="_File_Icon" width="27" height="36" data-name="File Icon" viewBox="0 0 27 36">
    <g id="Icon" transform="translate(7.467 15.5)">
        <path id="Shape" fill="#ff3100" d="M.931 12.333a.93.93 0 0 1-.421-.1l-.31-.158a.49.49 0 0 1-.185-.539 3.922 3.922 0 0 1 1.938-1.982c.076-.046.3-.169.674-.366l.029-.016.32-.172c.316-.538.663-1.177 1.031-1.9l.047-.092c.358-.7.763-1.494 1.091-2.291l.115-.277A8.929 8.929 0 0 1 4.8.476.741.741 0 0 1 5.556 0h.005l.2.006h.027a.746.746 0 0 1 .629.5L6.449.6A.9.9 0 0 1 6.5.815a16.852 16.852 0 0 1-.294 3.039c-.017.076-.036.155-.064.263a6.777 6.777 0 0 0 1.673 2.594 5.141 5.141 0 0 0 .927.64 14.135 14.135 0 0 1 1.9-.147h.1A2.577 2.577 0 0 1 12.4 7.6a.646.646 0 0 1 .186.321 1.382 1.382 0 0 1-.154.939.652.652 0 0 1-.384.262 1.5 1.5 0 0 1-.386.042 7.794 7.794 0 0 1-3.289-1.048 29.134 29.134 0 0 0-4.512 1.072c-1.247 2.175-2.15 3.145-2.93 3.145zM2.6 9.628c-.1.1-.244.23-.3.275a5.406 5.406 0 0 0-1.536 1.838A5.76 5.76 0 0 0 2.6 9.628zM10.741 7.9c-.246 0-.526.012-.832.034a5.142 5.142 0 0 0 1.812.548 1.143 1.143 0 0 0 .437-.076.1.1 0 0 0 .035-.1c-.007-.046-.058-.2-.412-.292a3.1 3.1 0 0 0-1-.113h-.041zm-5.03-2.482a19.112 19.112 0 0 1-.95 2.074c-.166.313-.343.637-.541.991a19.977 19.977 0 0 1 3.306-.921c-.089-.067-.167-.13-.246-.2a6.861 6.861 0 0 1-1.569-1.944zM5.689.4a.027.027 0 0 0-.019.01 3.129 3.129 0 0 0-.085.887 6.445 6.445 0 0 0 .211 1.641 2.517 2.517 0 0 0 .3-1.314C6.082 1.031 5.936.4 5.689.4z"/>
    </g>
    <path id="File" fill="#f2f4f4" d="M25 36H2a2 2 0 0 1-2-2V2a2 2 0 0 1 2-2h19.722L27 5v29a2 2 0 0 1-2 2zM2 1a1 1 0 0 0-1 1v32a1 1 0 0 0 1 1h23a1 1 0 0 0 1-1V6h-3a2 2 0 0 1-2-2V1zm20 .641V4a1 1 0 0 0 1 1h2.545z"/>
</svg>
